PathFileType	4	(X/Y/Z)	/home/abdul/Desktop/myosuite/custom_workspace/IK/output/S1_12_3.trc
DataRate	CameraRate	NumFrames	NumMarkers	Units	OrigDataRate	OrigDataStartFrame	OrigNumFrames
200.0	200.0	50	3	mm	200.0	611	2443
Frame#	Time	V_Shoulder			V_Elbow			V_Wrist		
		X1	Y1	Z1	X2	Y2	Z2	X3	Y3	Z3

611	3.05	-187.44748189156348	452.1033553374138	358.94511792526055	-277.06983912977876	321.08780147522896	22.63789436173254	-110.22306012189115	112.87746645827838	76.76416965858562
612	3.055	-187.35410909826714	452.157757312534	359.10489686039483	-277.1262215897418	321.03761950516116	22.879047058767735	-110.21440645039968	112.87564311799258	76.96472536592348
613	3.06	-187.2594495775593	452.2185318675965	359.2679530791425	-277.1862103647054	320.98830837372554	23.12699488448906	-110.20915988271264	112.8749636967936	77.17259123815009
614	3.065	-187.16352426205253	452.2858403044125	359.43418932322214	-277.24980810873996	320.9401746567522	23.381578307559412	-110.2074848636737	112.87561700805645	77.38768464316898
615	3.07	-187.0663554552176	452.3598423143046	359.6035049807454	-277.31701575009083	320.8935308318809	23.642631456063896	-110.20954780728678	112.87779548030258	77.60991896016209
616	3.075	-186.96796681834545	452.44069576916826	359.7757962329479	-277.3878323975246	320.8486947774648	23.909982323454365	-110.21551684527971	112.88169478373516	77.8392036883788
617	3.08	-186.86838335576272	452.5285565106367	359.9509562042604	-277.46225524154386	320.8059892509544	24.183452978660707	-110.22556156047912	112.88751344546505	78.07544455950685
618	3.085	-186.7676313982973	452.6235781377606	360.128875115502	-277.5402794510936	320.76574134755094	24.4628597805293	-110.23985270546815	112.8954524543148	78.31854365408341
619	3.09	-186.66573858498748	452.725911793629	360.3094404399764	-277.621898066437	320.7282819399961	24.748013596775003	-110.25856190706956	112.90571485613428	78.56839952239395
620	3.095	-186.56273384303321	452.8357059513737	360.4925370622639	-277.7071018889302	320.69394510044185	25.03872002765468	-110.28186135726845	112.9185053406072	78.82490731029017
621	3.1	-186.4586473659856	452.9531062000071	360.67804743950245	-277.79587936847554	320.66306750542583	25.334779634587516	-110.3099234912589	112.93402982057256	79.08795889033604
622	3.105	-186.35351059017555	453.078255030558	360.86585176496027	-277.8882164894779	320.63598782505744	25.635988173960023	-110.34292065336717	112.9524950049292	79.35744299866143
623	3.11	-186.2473561693803	453.21129162297694	361.05582813370864	-277.9840966561686	320.61304609759605	25.942136836362074	-110.38102475167159	112.97410796623319	79.63324537786932
624	3.115	-186.14021794773166	453.3523516342888	361.2478527102028	-278.0835005782018	320.5945830906876	26.25301249150359	-110.42440690220394	112.99907570413824	79.91524892630264
625	3.12	-186.03213093086856	453.5015669884758	361.4417998975905	-278.1864061574559	320.5809396505975	26.56839793906056	-110.47323706367972	113.02760470586654	80.20333385393232
626	3.125	-185.92313125534142	453.6590656685781	361.63754250856783	-278.29278837700366	320.5724560408602	26.888072165693234	-110.5276836637643	113.0599005049321	80.49737784507977
627	3.13	-185.8132561562742	453.8249715114991	361.8349519376059	-278.40261919323314	320.56947127183355	27.21181060846877	-110.58791321793889	113.09616723936887	80.79725622813399
628	3.135	-185.7025439332966	453.99940400600275	362.0338983343763	-278.51586743211885	320.57232242272073	27.539385424905635	-110.65408994208303	113.1366072107436	81.10284215236832
629	3.14	-185.59103391475762	454.18247809438793	362.2342507782054	-278.63249869065066	320.5813439576875	27.87056576983685	-110.72637535993971	113.18142044525479	81.41400677190245
630	3.145	-185.47876642023678	454.374303978318	362.4358774533884	-278.75247524443154	320.59686703776555	28.20511807926494	-110.80492790667509	113.23080425823642	81.73061943679485
631	3.15	-185.36578272137106	454.57498692928203	362.6386458251968	-278.8757559624503	320.6192188302911	28.54280636135229	-110.88990252978546	113.28495282339708	82.0525478911886
632	3.155	-185.25212500101847	454.7846271041517	362.8424228164137	-279.0022962300246	320.64872181767976	28.883392494657087	-110.98145028864027	113.34405674813031	82.37965847836959
633	3.16	-185.13783631078354	455.0033193662887	363.047074984229	-279.1320478808907	320.68569310738434	29.226636533687234	-111.07971795398285	113.40830265623148	82.7118163525324
634	3.165	-185.02296052693214	455.23115311264814	363.25246869732905	-279.2649591393906	320.7304437449244	29.572297021802576	-111.18484760873567	113.47787277934907	83.04888569698562
635	3.17	-184.90754230472717	455.46821210730724	363.45847031301224	-279.4009745736738	320.7832780319061	29.920131311449733	-111.2969762514802	113.55294455848356	83.39072994846524
636	3.175	-184.79162703122086	455.7145743218341	363.6649463541599	-279.54003506078834	320.84449285097855	30.269895891664042	-111.41623540399635	113.63369025682542	83.73721202716268
637	3.18	-184.6752607765426	455.97031178289444	363.8717636858897	-279.6820777644879	320.9143769996908	30.62134672271986	-111.54275072425784	113.72027658519406	84.08819457201467
638	3.185	-184.55849024372606	456.23549042747726	364.07878969171657	-279.82703612652426	320.99321053521874	30.97423957775362	-111.6766416262849	113.81286434130283	84.44354018074424
639	3.19	-184.44136271712318	456.5101699660984	364.28589244904106	-279.9748398721316	321.0812641319387	31.32833039112486	-111.81802090825494	113.91160806403008	84.80311165408756
640	3.195	-184.32392600945673	456.7944037543211	364.49294090378163	-280.1254150303344	321.17879845380946	31.683375613218175	-111.96699439026511	114.0166557038241	85.16677224359017
641	3.2	-184.20622840756891	457.08823867291045	364.6998050439622	-280.2786839696374	321.2860635435106	32.03913257132476	-112.12366056312923	114.12814831030909	85.5343859023078
642	3.205	-184.08831861692622	457.39171501691277	364.9063560720621	-280.43456544956655	321.40329823025894	32.3953598361762	-112.28811024957227	114.24621973809204	85.90581753770442
643	3.21	-183.97024570494764	457.70486639393033	365.1124665759298	-280.59297468844153	321.530729558187	32.751817593635984	-112.46042627916225	114.37099637169527	86.28093326599998
644	3.215	-183.85205904322547	458.0277196318331	365.31801069805573	-280.7538234476648	321.66857223712276	33.10826802098607	-112.6406831782887	114.50259687045744	86.65960066718694
645	3.22	-183.73380824871506	458.36029469612373	365.52286430299426	-280.9170201327072	321.8170281175577	33.464475667177425	-112.82894687646058	114.64113193415776	87.04168903990455
646	3.225	-183.61554312397266	458.7026046171456	365.72690514271807	-281.0824699108686	321.9762856915214	33.82020783634555	-113.02527443015515	114.78670409002387	87.42706965533588
647	3.23	-183.49731359652674	459.05465542729553	365.93001301968343	-281.25007484578117	322.1465196210138	34.17523497382467	-113.22971376539994	114.93940750168379	87.81561600927364
648	3.235	-183.37916965747152	459.41644610837534	366.13206994737817	-281.41973404851	322.3278902955599	34.529331053828436	-113.44230344021757	115.09932780051824	88.20720407148771
649	3.24	-183.2611612993763	459.7879685491885	366.3329603081179	-281.5913438449942	322.5205434203642	34.88227396790142	-113.66307242800258	115.26654193976117	88.60171253151927
650	3.245	-183.14333845360912	460.1692075134579	366.53257100785027	-281.76479795945556	322.72460963644335	35.23384591318469	-113.89203992283471	115.44111807158416	88.9990230400234
651	3.25	-183.02575092717666	460.5601406181152	366.7307916277235	-281.9399877132874	322.94020417400736	35.583833779480585	-114.12921516766275	115.62311544728689	89.39902044478625
652	3.255	-182.9084483391869	460.9607383219821	366.9275145721679	-282.1168022388213	323.1674265402503	35.93202953404828	-114.37459730621721	115.81258434059933	89.80159302055031
653	3.26	-182.79148005704425	461.3709639248363	367.12263521323774	-282.2951287072591	323.4063602425888	36.27823060301197	-114.62817525942953	116.00956599398576	90.20663269179583
654	3.265	-182.67489513249134	461.7907735768265	367.3160520309527	-282.4748525699449	323.6570725482618	36.62224024821897	-114.88992762704981	116.21409258772431	90.61403524764455
655	3.27	-182.55874223761327	462.220116298176	367.5076667493798	-282.65585781204925	323.91961428107476	36.963867938346496	-115.1598226150661	116.4261872314215	91.02370054807648
656	3.275	-182.44306960092453	462.65893400908425	367.6973844681904	-282.83802721763305	324.1940196559362	37.30292971302266	-115.4378179894332	116.64586397750932	91.43553272067786
657	3.28	-182.32792494366117	463.10716156971375	367.8851137894265	-283.02124264496626	324.48030615169483	37.63924853870096	-115.7238610565225	116.87312785616345	91.84944034717203
658	3.285	-182.21335541640144	463.56472683012095	368.0707669392097	-283.20538531088437	324.7784744226451	37.97265465500857	-116.01788867060203	117.10797493097684	92.26533663902046
659	3.29	-182.09940753614197	464.03155068997006	368.2542598841278	-283.3903360828848	325.08850824892335	38.30298591027612	-116.31982726855264	117.35039237462499	92.68313960142214
660	3.295	-181.98612712395666	464.5075471678405	368.4355124420319	-283.5759757775913	325.41037452587534	38.630088084952966	-116.62959293191923	117.60035856366588	93.10277218508315
